<svg width="24" height="24" viewBox="0 0 24 24" fill="none" xmlns="http://www.w3.org/2000/svg">
<path fill-rule="evenodd" clip-rule="evenodd" d="M4.85002 7.00002C4.85002 5.81261 5.81261 4.85002 7.00002 4.85002H9.50002C9.96947 4.85002 10.35 4.46947 10.35 4.00002C10.35 3.53058 9.96947 3.15002 9.50002 3.15002H7.00002C4.87373 3.15002 3.15002 4.87373 3.15002 7.00002V9.50002C3.15002 9.96947 3.53058 10.35 4.00002 10.35C4.46947 10.35 4.85002 9.96947 4.85002 9.50002V7.00002ZM14.5 3.15002C14.0306 3.15002 13.65 3.53058 13.65 4.00002C13.65 4.46947 14.0306 4.85002 14.5 4.85002H17C18.1874 4.85002 19.15 5.81261 19.15 7.00002V9.50002C19.15 9.96947 19.5306 10.35 20 10.35C20.4695 10.35 20.85 9.96947 20.85 9.50002V7.00002C20.85 4.87373 19.1263 3.15002 17 3.15002H14.5ZM4.85002 14.5C4.85002 14.0306 4.46947 13.65 4.00002 13.65C3.53058 13.65 3.15002 14.0306 3.15002 14.5V17C3.15002 19.1263 4.87373 20.85 7.00002 20.85H9.50002C9.96947 20.85 10.35 20.4695 10.35 20C10.35 19.5306 9.96947 19.15 9.50002 19.15H7.00002C5.81261 19.15 4.85002 18.1874 4.85002 17V14.5ZM20.85 14.5C20.85 14.0306 20.4695 13.65 20 13.65C19.5306 13.65 19.15 14.0306 19.15 14.5V17C19.15 18.1874 18.1874 19.15 17 19.15H14.5C14.0306 19.15 13.65 19.5306 13.65 20C13.65 20.4695 14.0306 20.85 14.5 20.85H17C19.1263 20.85 20.85 19.1263 20.85 17V14.5Z" fill="#272831"/>
</svg>
