<svg width="24" height="24" viewBox="0 0 24 24" fill="none" xmlns="http://www.w3.org/2000/svg">
<path fill-rule="evenodd" clip-rule="evenodd" d="M12 18.3C15.4794 18.3 18.3 15.4794 18.3 12C18.3 8.52061 15.4794 5.7 12 5.7C8.52061 5.7 5.7 8.52061 5.7 12C5.7 15.4794 8.52061 18.3 12 18.3ZM12 20C16.4183 20 20 16.4183 20 12C20 7.58172 16.4183 4 12 4C7.58172 4 4 7.58172 4 12C4 16.4183 7.58172 20 12 20ZM12 8.15C12.4694 8.15 12.85 8.53056 12.85 9V12C12.85 12.4694 12.4694 12.85 12 12.85C11.5306 12.85 11.15 12.4694 11.15 12L11.15 9C11.15 8.53056 11.5306 8.15 12 8.15ZM12 16C12.5523 16 13 15.5523 13 15C13 14.4477 12.5523 14 12 14C11.4477 14 11 14.4477 11 15C11 15.5523 11.4477 16 12 16Z" fill="#202128"/>
</svg>
