<svg width="24" height="24" viewBox="0 0 24 24" fill="none" xmlns="http://www.w3.org/2000/svg">
<path fill-rule="evenodd" clip-rule="evenodd" d="M19.3 12C19.3 16.0317 16.0317 19.3 12 19.3C7.96832 19.3 4.7 16.0317 4.7 12C4.7 7.96832 7.96832 4.7 12 4.7C16.0317 4.7 19.3 7.96832 19.3 12ZM21 12C21 16.9706 16.9706 21 12 21C7.02944 21 3 16.9706 3 12C3 7.02944 7.02944 3 12 3C16.9706 3 21 7.02944 21 12ZM16.101 10.101C16.433 9.76909 16.433 9.23091 16.101 8.89896C15.7691 8.56701 15.2309 8.56701 14.899 8.89896L10.5 13.2979L8.60104 11.399C8.26909 11.067 7.73091 11.067 7.39896 11.399C7.06701 11.7309 7.06701 12.2691 7.39896 12.601L9.89896 15.101C10.2309 15.433 10.7691 15.433 11.101 15.101L16.101 10.101Z" fill="#202128"/>
</svg>
