<svg width="24" height="24" viewBox="0 0 24 24" fill="none" xmlns="http://www.w3.org/2000/svg">
<path fill-rule="evenodd" clip-rule="evenodd" d="M17.6011 7.60103C17.933 7.26909 17.933 6.7309 17.6011 6.39895C17.2691 6.06701 16.7309 6.06701 16.399 6.39895L12 10.7979L7.60107 6.39895C7.26912 6.06701 6.73093 6.06701 6.39898 6.39895C6.06704 6.7309 6.06704 7.26909 6.39898 7.60103L10.7979 12L6.39898 16.399C6.06704 16.7309 6.06704 17.2691 6.39898 17.601C6.73093 17.933 7.26912 17.933 7.60107 17.601L12 13.2021L16.399 17.601C16.7309 17.933 17.2691 17.933 17.6011 17.601C17.933 17.2691 17.933 16.7309 17.6011 16.399L13.2021 12L17.6011 7.60103Z" fill="#202128"/>
</svg>
