<svg width="24" height="24" viewBox="0 0 24 24" fill="none" xmlns="http://www.w3.org/2000/svg">
<path fill-rule="evenodd" clip-rule="evenodd" d="M12 18.3C15.4794 18.3 18.3 15.4794 18.3 12C18.3 8.52061 15.4794 5.7 12 5.7C8.52061 5.7 5.7 8.52061 5.7 12C5.7 15.4794 8.52061 18.3 12 18.3ZM12 20C16.4183 20 20 16.4183 20 12C20 7.58172 16.4183 4 12 4C7.58172 4 4 7.58172 4 12C4 16.4183 7.58172 20 12 20ZM12 11.15C12.4694 11.15 12.85 11.5306 12.85 12V15C12.85 15.4694 12.4694 15.85 12 15.85C11.5306 15.85 11.15 15.4694 11.15 15L11.15 12C11.15 11.5306 11.5306 11.15 12 11.15ZM12 10C12.5523 10 13 9.55229 13 9C13 8.44771 12.5523 8 12 8C11.4477 8 11 8.44771 11 9C11 9.55229 11.4477 10 12 10Z" fill="#202128"/>
</svg>
