<svg width="24" height="24" viewBox="0 0 24 24" fill="none" xmlns="http://www.w3.org/2000/svg">
<path d="M11.9995 6.1499C12.4688 6.1499 12.8489 6.53025 12.8491 6.99951V11.1499H16.9995C17.4688 11.1499 17.8489 11.5302 17.8491 11.9995C17.8491 12.469 17.469 12.8491 16.9995 12.8491H12.8491V16.9995C12.8491 17.469 12.469 17.8491 11.9995 17.8491C11.5302 17.8489 11.1499 17.4688 11.1499 16.9995V12.8491H6.99951C6.53025 12.8489 6.1499 12.4688 6.1499 11.9995C6.15011 11.5304 6.53038 11.1501 6.99951 11.1499H11.1499V6.99951C11.1501 6.53038 11.5304 6.15011 11.9995 6.1499Z" fill="#202128"/>
</svg>
